<?xml version="1.0" encoding="UTF-8"?>
<svg enable-background="new 0 0 496 298.4" version="1.1" viewBox="0 0 496 298.4" xml:space="preserve" xmlns="http://www.w3.org/2000/svg">
<style type="text/css">
	.st0{fill:#12DB55;}
	.st1{fill:#0AC945;}
	.st2{fill:#334449;}
	.st3{fill:#0CC69A;}
	.st4{fill:#0BAF84;}
	.st5{fill:#D4F9ED;}
	.st6{fill:#FFBC00;}
	.st7{fill:#FFAA00;}
	.st8{fill:#F7B208;}
	.st9{fill:#F20A41;}
	.st10{fill:#E00040;}
	.st11{fill:#F97803;}
	.st12{fill:#F76806;}
</style>
<path class="st0" d="m496 280.8c0 9.6-7.2 16.8-16.8 16.8h-462.4c-9.6 0-16.8-7.2-16.8-16.8v-264c0-9.6 7.2-16.8 16.8-16.8h462.4c9.6 0 16.8 7.2 16.8 16.8v264z"/>
	<path class="st0" d="m496 280.8c0 9.6-7.2 16.8-16.8 16.8h-462.4c-9.6 0-16.8-7.2-16.8-16.8v-264c0-9.6 7.2-16.8 16.8-16.8h462.4c9.6 0 16.8 7.2 16.8 16.8v264z"/>
<path class="st1" d="M0,16.8C0,7.2,7.2,0,16.8,0h462.4c9.6,0,16.8,7.2,16.8,16.8v264.8c0,9.6-7.2,16.8-16.8,16.8"/>
<rect class="st2" y="20" width="496" height="96.8"/>
<polygon points="170.4 116.8 496 116.8 496 20 5.6 20"/>
<path class="st3" d="M496,280.8c0,9.6-7.2,16.8-16.8,16.8H16.8c-9.6,0-16.8-7.2-16.8-16.8"/>
<path class="st4" d="m479.2 297.6c9.6 0 16.8-7.2 16.8-16.8h-44.8l28 16.8z"/>
	<path class="st5" d="m177.6 165.6c0 3.2-2.4 5.6-5.6 5.6h-119.2c-3.2 0-5.6-2.4-5.6-5.6s2.4-5.6 5.6-5.6h119.2c3.2 0 5.6 2.4 5.6 5.6z"/>
	<path class="st5" d="m177.6 194.4c0 3.2-2.4 5.6-5.6 5.6h-119.2c-3.2 0-5.6-2.4-5.6-5.6 0.8-3.2 3.2-5.6 5.6-5.6h119.2c3.2 0 5.6 2.4 5.6 5.6z"/>
	<path class="st5" d="m154.4 223.2c0 3.2-2.4 5.6-5.6 5.6h-96c-2.4 0-4.8-2.4-4.8-5.6s2.4-5.6 5.6-5.6h96c2.4 0.8 4.8 3.2 4.8 5.6z"/>
<circle class="st6" cx="360" cy="201.6" r="60"/>
<path class="st7" d="m360 141.6c-30.4 0-55.2 22.4-60 51.2l96.8 56.8c14.4-11.2 23.2-28 23.2-48 0.8-33.6-26.4-60-60-60z"/>
<path class="st8" d="m360 141.6c33.6 0 60 27.2 60 60s-27.2 60-60 60"/>
	<circle class="st9" cx="408" cy="201.6" r="60"/>
	<circle class="st9" cx="408" cy="201.6" r="60"/>
<path class="st10" d="m408 262.4c-33.6 0-60-27.2-60-60s27.2-60 60-60"/>
<path class="st11" d="m384 146.4c-21.6 9.6-36 30.4-36 55.2s15.2 46.4 36 55.2c21.6-9.6 36-30.4 36-55.2s-14.4-46.4-36-55.2z"/>
<path class="st12" d="m384 256.8c21.6-9.6 36-30.4 36-55.2s-15.2-46.4-36-55.2"/>
</svg>
