<?xml version="1.0" encoding="UTF-8"?>
<svg viewBox="0 0 3125 1963" xmlns="http://www.w3.org/2000/svg">
<metadata>
<x:xmpmeta x:xmptk="Adobe XMP Core 5.6-c138 79.159824, 2016/09/14-01:09:01        " xmlns:x="adobe:ns:meta/">
<rdf:RDF xmlns:rdf="http://www.w3.org/1999/02/22-rdf-syntax-ns#">
<rdf:Description rdf:about=""/>
</rdf:RDF>
</x:xmpmeta>
</metadata>
<defs>
<style>.cls-1 {
        fill: #8fc83b;
      }
      .cls-2 {
        fill: #fef200;
      }
      .cls-3 {
        fill: #231f20;
      }
      .cls-3, .cls-4 {
        fill-rule: evenodd;
      }
      .cls-4 {
        fill: #ed1b24;
      }</style>
</defs>
<rect class="cls-1" width="3125" height="1963" rx="150" ry="150" data-name="Rounded Rectangle 1"/>
<rect class="cls-2" x="67" y="67" width="2995" height="1829" rx="150" ry="150" data-name="Rounded Rectangle 2"/>
<path class="cls-3" d="m2469.3 778c-38.34 8.751-49.17 13.752-55 24.171-2.09 3.75-19.17 66.261-37.92 138.36-55.42 214.2-66.26 255.46-70.84 270.88-2.08 7.92-4.17 15.84-4.17 17.92 0 1.67 20.84 2.5 46.67 2.08l46.67-1.25 19.17-75.01c30.42-117.1 31.67-119.6 50.84-141.69 19.16-21.671 37.08-31.256 59.17-31.256 22.5 0 35.42 6.667 42.92 22.916 8.33 17.51 7.08 25.43-23.76 142.95-11.66 42.92-20.83 79.18-20.83 80.84 0 2.09 21.25 3.34 47.09 3.34h46.67l29.16-111.69c32.92-127.52 35.84-153.78 19.17-182.53-19.17-33.755-68.75-47.925-119.17-33.339-25.42 7.5-35.84 13.336-62.09 33.339-13.33 10.419-15.83 10.835-13.75 4.168 1.25-4.168 11.25-41.674 21.67-82.931s20.42-78.347 21.25-82.514c2.5-8.75 0.83-8.75-42.92 1.25zm-909.64 14.586c-15 3.334-45 15-66.67 25.837-31.67 15.836-46.25 26.672-72.92 53.343-50.42 50.425-76.67 100.43-88.76 170.03-18.33 102.1 32.09 175.44 134.18 195.03 69.59 12.92 195.01-15.42 210.01-47.92 6.25-13.76 22.5-77.93 20.42-80.02-0.83-0.83-15.42 4.59-32.5 12.5-46.25 21.26-76.26 28.76-118.34 29.18-31.25 0.41-41.25-1.25-59.59-9.59-41.67-18.75-57.09-47.51-54.17-100.02 1.67-25 5-37.92 15.83-60.84 17.51-37.09 56.68-77.1 90.43-92.933 21.67-10 28.75-11.252 70-11.252 40 0 48.34 1.251 64.59 10 10.42 5.418 22.92 13.752 28.33 18.337l9.59 8.751 29.17-29.172c36.66-35.839 40.42-42.09 30-50.008-19.17-15.42-41.67-28.338-63.34-35.84-31.25-11.248-108.34-14.165-146.26-5.413zm309.19 110.44c-30 5.418-68.76 19.587-74.17 27.088-5 6.668-19.59 60.427-17.51 62.928 0.84 0.416 18.76-3.334 40.42-9.168 45.84-11.669 94.18-13.336 115.01-3.334 17.09 7.918 24.59 25 20.84 47.093-2.5 15.83-3.34 16.25-13.34 12.5-5.83-2.08-24.58-5.83-41.67-8.33-54.58-7.51-112.09 6.66-150.84 37.5-22.5 17.92-42.5 57.93-45 89.6-2.5 32.51 6.66 50.01 34.17 67.1 18.33 11.25 23.33 12.5 55.83 12.5 40.84 0 69.59-8.34 95.84-27.51 20-14.17 22.5-15 19.59-3.75-1.25 4.59-3.75 12.09-5 16.67-2.09 8.34-0.84 8.75 44.58 7.5l46.67-1.25 26.67-102.1c30-116.27 33.34-136.27 26.25-162.53-7.5-27.5-19.17-41.257-45.42-53.342-19.58-9.169-30.42-10.836-67.09-11.669-24.16-0.832-53.75 0.419-65.83 2.502zm46.67 182.95c8.75 2.09 17.5 5.42 19.16 7.5 5.84 5.84-8.33 40.01-22.08 55.01-18.33 19.59-42.09 29.59-70 29.59-30.42 0-45.42-10.42-45.42-31.67 0-47.928 53.75-75.008 118.34-60.428zm269.18-181.28c-31.25 8.335-50.84 20-72.92 42.091-29.59 29.588-42.5 70.849-30.84 100.85 9.59 25.84 31.26 40.01 90.84 60.01 50.84 17.5 58.76 26.67 41.25 47.51-19.58 22.5-72.5 20.84-119.59-4.17l-27.5-15-23.75 26.25c-13.33 14.59-23.33 27.93-22.5 30.43 2.5 8.33 34.59 27.08 60.84 35.84 70 22.5 147.09 10.83 192.93-29.18 34.58-30.83 50.41-90.01 32.08-120.02-10-16.67-42.09-35.42-84.59-49.59-17.92-5.83-37.5-15.42-43.75-20.42-10.83-9.583-10.83-10.417-5-21.669 12.92-23.754 53.34-26.671 101.67-7.084 13.75 5.417 28.34 9.168 32.09 7.918 8.33-2.918 45.42-45.008 45.42-52.093 0-6.667-47.92-28.338-74.59-33.339-29.59-5.415-68.76-4.999-92.09 1.669z"/>
<path class="cls-4" d="m1640.7 119.33c-26.67 3.749-685.03 126.64-711.7 132.89-46.669 11.248-73.753 36.66-73.753 69.57v16.663l-19.585-2.916c-88.753-12.914-158.76-1.666-225.43 35.827-37.5 21.246-80.837 65.821-100 102.06-39.585 76.235-54.586 134.14-57.919 226.21-3.334 93.732 10.833 174.55 45.418 257.45 26.251 63.322 82.92 133.72 137.51 170.8 24.584 17.08 72.92 36.24 106.67 42.91 36.669 7.08 119.59 2.5 157.09-8.33 47.086-13.75 93.338-38.75 117.92-63.74 72.92-72.9 123.76-209.54 97.51-261.62-14.17-28.744-48.76-41.242-75.84-27.078-16.67 8.748-20.42 17.08-25 57.072-6.25 49.991-12.09 72.9-25.837 100.81-22.917 45.821-67.086 78.321-125 92.071-110.84 26.24-210.84-34.58-261.68-159.56-13.334-32.91-27.5-87.066-23.751-91.232 2.917-2.916 26.668-7.082 290.43-51.24 205.01-34.577 211.67-35.827 224.17-47.075 12.92-11.664 12.09-35.826-3.33-104.15-17.5-78.735-27.92-105.81-57.5-145.8-13.75-18.746-14.17-21.246-10-35.827 11.67-38.326 49.17-67.07 109.17-83.317 17.08-4.582 97.09-20.829 177.09-35.41 80.42-15 174.59-32.494 209.59-39.159 34.59-6.665 63.34-10.415 63.34-8.332 0 1.667-6.25 12.914-13.75 25-7.92 12.081-63.75 104.56-124.59 205.38s-176.67 292.86-257.51 427-157.51 261.62-170.84 283.28c-12.92 21.66-75 124.98-137.92 229.12s-120 202.88-126.26 218.71c-31.668 77.49-11.251 156.22 47.5 186.63 38.751 20 53.752 16.67 187.09-40.4 129.59-55.83 319.18-131.65 465.02-186.64 107.51-40.4 324.6-118.31 347.1-124.97 7.92-2.09 13.34-5 12.09-5.83-5.84-5.84-214.6 47.9-389.19 99.98-35 10.41-65 19.16-66.67 19.16-8.75-0.42 17.92-10.83 103.76-41.24 167.09-58.74 362.1-119.56 609.19-190.38 178.34-51.24 67.09-35-192.93 27.91-37.5 9.16-69.16 15.83-69.58 15-2.5-2.5 141.67-47.08 208.76-64.99 82.5-21.66 208.76-50.83 292.93-67.49 45.83-9.58 67.5-15.41 67.5-19.16 0-7.08 5-7.92-109.17 11.25-336.27 56.65-709.2 142.05-1278.4 293.27-12.5 3.34-23.334 5.42-24.168 4.59-2.083-2.09 20-43.75 53.338-102.07 16.67-28.74 35-60.4 40.83-70.82 65.42-114.98 345.02-566.14 596.28-961.48 105.42-166.64 115-190.8 97.5-252.04-13.336-47.909-47.506-66.655-107.51-58.323zm-815.45 325.35c32.5 10.415 68.753 34.993 89.588 60.822 18.75 23.745 48.335 82.9 51.668 104.15 2.084 12.914 1.25 14.164-9.583 16.663-11.251 2.083-332.1 56.656-371.27 62.9l-17.918 2.916v-37.071c0-20 2.084-44.992 4.584-54.99 7.083-32.077 30.834-76.652 52.919-100.81 47.918-52.073 132.92-75.402 200.01-54.573z"/>
</svg>
